<?xml version="1.0" encoding="UTF-8" standalone="no"?>
<svg
   xmlns:dc="http://purl.org/dc/elements/1.1/"
   xmlns:cc="http://creativecommons.org/ns#"
   xmlns:rdf="http://www.w3.org/1999/02/22-rdf-syntax-ns#"
   xmlns:svg="http://www.w3.org/2000/svg"
   xmlns="http://www.w3.org/2000/svg"
   xmlns:sodipodi="http://sodipodi.sourceforge.net/DTD/sodipodi-0.dtd"
   xmlns:inkscape="http://www.inkscape.org/namespaces/inkscape"
   sodipodi:docname="company-logo.svg"
   inkscape:version="1.0 (4035a4fb49, 2020-05-01)"
   id="svg8"
   version="1.1"
   viewBox="0 0 65.217377 44.294029"
   height="44.294029mm"
   width="65.217377mm">
  <defs
     id="defs2" />
  <sodipodi:namedview
     inkscape:window-maximized="0"
     inkscape:window-y="0"
     inkscape:window-x="0"
     inkscape:window-height="729"
     inkscape:window-width="1350"
     showgrid="false"
     inkscape:document-rotation="0"
     inkscape:current-layer="layer1"
     inkscape:document-units="mm"
     inkscape:cy="98.174521"
     inkscape:cx="101.85505"
     inkscape:zoom="1.979899"
     inkscape:pageshadow="2"
     inkscape:pageopacity="0.0"
     borderopacity="1.0"
     bordercolor="#666666"
     pagecolor="#ffffff"
     id="base" />
  <metadata
     id="metadata5">
    <rdf:RDF>
      <cc:Work
         rdf:about="">
        <dc:format>image/svg+xml</dc:format>
        <dc:type
           rdf:resource="http://purl.org/dc/dcmitype/StillImage" />
        <dc:title></dc:title>
      </cc:Work>
    </rdf:RDF>
  </metadata>
  <g
     transform="translate(-78.756698,-74.864736)"
     id="layer1"
     inkscape:groupmode="layer"
     inkscape:label="Layer 1">
    <path
       id="path847"
       d="m 107.9689,118.892 c -0.94589,-0.20077 -2.38606,-0.61619 -3.20039,-0.92313 -2.87152,-1.08237 -8.705863,-5.41666 -8.705863,-6.46752 0,-0.55134 2.049957,-2.8143 2.5494,-2.8143 0.200938,0 1.223582,0.72062 2.272543,1.60136 5.5044,4.62169 12.26743,5.57492 18.36745,2.58884 0.89422,-0.43774 2.58039,-1.55961 3.74703,-2.49304 1.16665,-0.93344 2.2555,-1.69716 2.41966,-1.69716 0.4955,0 2.38708,2.20947 2.39062,2.79237 0.004,0.63436 -1.00614,1.64732 -3.53117,3.54152 -2.19518,1.64677 -4.81887,3.00039 -6.93497,3.57791 -2.18126,0.59531 -7.20998,0.75256 -9.37431,0.29315 z m 2.11666,-1.12213 c 0,-0.0977 -0.2026,-0.40149 -0.45023,-0.67512 -0.42802,-0.47294 -0.41169,-0.52902 0.33072,-1.13579 0.71606,-0.58524 0.73418,-0.63908 0.21806,-0.64781 -0.30961,-0.005 -0.71114,0.16908 -0.8923,0.38736 -0.4974,0.59933 -1.12958,0.50902 -0.92604,-0.13229 0.11919,-0.37553 0.0475,-0.52917 -0.24675,-0.52917 -0.2291,0 -0.41471,0.22204 -0.41471,0.4961 0,0.27285 -0.0744,0.86816 -0.16536,1.32292 -0.18896,0.94476 0.31989,1.17043 0.64676,0.28682 0.19492,-0.52691 0.21507,-0.5237 0.83134,0.13229 0.61042,0.64976 1.06851,0.86184 1.06851,0.49469 z m 3.70417,-0.087 c 0,-0.14552 -0.47625,-0.26459 -1.05833,-0.26459 -0.58209,0 -1.05834,-0.11906 -1.05834,-0.26458 0,-0.14552 0.47625,-0.26458 1.05834,-0.26458 1.4219,0 1.36051,-0.52063 -0.0661,-0.56094 l -1.12448,-0.0318 1.12448,-0.2704 c 0.61846,-0.14873 1.12448,-0.37255 1.12448,-0.4974 0,-0.28596 -2.56854,-0.30153 -2.74461,-0.0166 -0.0715,0.11569 -0.0628,0.71101 0.0192,1.32292 l 0.14923,1.11256 h 1.28807 c 0.70843,10e-6 1.28807,-0.11906 1.28807,-0.26458 z m 1.4344,-0.94388 c -0.179,-0.95419 -0.16106,-0.97201 1.30347,-1.29452 0.55057,-0.12124 0.72322,-0.0737 0.64106,0.17634 -0.0618,0.18824 -0.43774,0.38062 -0.83533,0.4275 -0.86119,0.10154 -0.78911,0.55498 0.17459,1.09834 0.70556,0.39782 1.40246,0.16338 0.73697,-0.24791 -0.30459,-0.18825 -0.29221,-0.29995 0.0738,-0.66597 0.49773,-0.49773 0.52509,-0.65146 0.20566,-1.15551 -0.18495,-0.29183 -0.50031,-0.29971 -1.73515,-0.0434 l -1.50912,0.31329 0.18222,1.10169 c 0.21758,1.31552 0.33937,1.55846 0.67674,1.34996 0.13993,-0.0865 0.17822,-0.56342 0.0851,-1.05986 z m -8.34576,0.084 c 0.51251,-1.3913 0.57735,-2.05052 0.20171,-2.05052 -0.37769,0 -1.04644,2.03261 -0.79996,2.43142 0.21466,0.34733 0.36533,0.2514 0.59825,-0.3809 z m -1.17781,-0.76826 c 0.22894,-0.45892 0.41625,-0.98913 0.41625,-1.17824 0,-0.2958 -2.09216,-1.42694 -2.63928,-1.42694 -0.23622,0 -1.19219,2.07755 -1.03041,2.23933 0.16465,0.16465 2.44065,1.18738 2.65813,1.19444 0.0985,0.003 0.36637,-0.36967 0.59531,-0.82859 z m -1.89885,-0.28227 c -0.32742,-0.15791 -0.59531,-0.38798 -0.59531,-0.51126 0,-0.32828 0.28704,-0.2621 1.32291,0.30502 0.6754,0.36976 0.78282,0.50514 0.39688,0.50016 -0.29104,-0.004 -0.79706,-0.13601 -1.12448,-0.29392 z m 0.49839,-0.9026 c -0.48987,-0.21374 -0.82621,-0.45308 -0.74742,-0.53188 0.19408,-0.19408 2.03497,0.4864 2.03497,0.75222 0,0.28119 -0.22716,0.24232 -1.28755,-0.22034 z m 15.92733,1.48257 c 1.36637,-0.60441 1.57104,-0.82187 1.34006,-1.4238 -0.19864,-0.51765 -1.07445,-0.52834 -1.95693,-0.0239 -0.77972,0.44574 -1.05833,0.48632 -1.05833,0.15418 0,-0.13348 0.53578,-0.44732 1.19063,-0.6974 0.65484,-0.25009 1.19062,-0.5576 1.19062,-0.68335 0,-0.3551 -0.55989,-0.26311 -1.78594,0.29341 -0.79898,0.36267 -1.12448,0.66974 -1.12448,1.06082 0,0.76338 0.59386,0.91534 1.58139,0.40468 0.45946,-0.2376 1.03576,-0.38647 1.28065,-0.33082 0.29634,0.0673 0.0249,0.31154 -0.81152,0.73016 -0.69122,0.34594 -1.25677,0.72431 -1.25677,0.84084 0,0.29117 0.0376,0.28252 1.41062,-0.32484 z m -28.407155,-7.82786 c -0.795393,-0.81698 -2.041482,-1.77468 -2.769087,-2.12824 l -1.322916,-0.64284 1.322916,0.15944 c 0.727605,0.0877 2.126384,0.55811 3.108398,1.04538 0.982015,0.48727 1.849006,0.78316 1.926647,0.65753 0.215882,-0.3493 -0.599601,-2.11902 -1.487583,-3.22827 -0.494709,-0.61798 -0.659424,-0.99218 -0.43673,-0.99218 0.525363,0 2.591496,1.38979 3.487207,2.34568 0.427408,0.45613 0.933424,0.82932 1.124479,0.82932 0.191056,0 0.347374,0.093 0.347374,0.20672 0,0.3785 -3.051631,3.23286 -3.456294,3.23286 -0.219032,0 -1.049017,-0.66843 -1.844411,-1.4854 z m 4.052948,1.08895 c -0.576924,-0.29994 -0.567405,-0.32336 0.595313,-1.46448 1.307294,-1.28301 1.439895,-1.79206 0.652444,-2.50469 -0.629096,-0.56933 -0.692629,-1.19063 -0.121751,-1.19063 1.183683,0 4.619671,2.52249 4.619671,3.39148 0,0.29816 -0.29139,0.33725 -1.44223,0.19347 -1.406852,-0.17578 -1.470121,-0.15494 -2.579686,0.84974 -0.999733,0.90522 -1.208454,0.99302 -1.723761,0.72511 z m 14.033877,0.0104 c -0.46196,-0.20094 -1.05442,-0.70229 -1.31657,-1.11412 -0.26215,-0.41183 -0.63493,-0.84768 -0.82839,-0.96857 -0.65193,-0.40736 -1.54829,-3.74647 -1.08292,-4.03408 0.12724,-0.0786 0.23297,0.19147 0.23496,0.60024 0.005,0.99997 0.27111,1.93384 0.55135,1.93384 0.12576,0 0.15522,-0.53578 0.0655,-1.19062 -0.20632,-1.50525 0.0588,-1.54402 0.45231,-0.0662 0.37808,1.42 0.87841,1.97995 2.06089,2.30645 1.00953,0.27874 1.46001,0.13378 0.82745,-0.26626 -0.28137,-0.17795 -0.13262,-0.24148 0.53683,-0.22931 0.50932,0.009 0.77721,0.0769 0.59531,0.15028 -0.39193,0.15814 -0.44896,1.14768 -0.0661,1.14768 0.14552,0 0.26459,-0.11676 0.26459,-0.25948 0,-0.14271 0.56554,-0.52966 1.25677,-0.85989 1.16248,-0.55537 1.2738,-0.69471 1.48383,-1.85719 0.25899,-1.4335 0.745,-1.74535 0.51543,-0.33073 -0.0933,0.5748 -0.0429,0.92604 0.13272,0.92604 0.15564,0 0.36416,-0.54128 0.46337,-1.20285 0.25818,-1.72168 0.48195,-1.23215 0.2576,0.56354 -0.13615,1.08965 -0.36266,1.66378 -0.82575,2.09296 -0.35098,0.32527 -0.63814,0.78005 -0.63814,1.01062 0,0.48407 -1.44005,1.62858 -2.31547,1.84026 -0.32762,0.0792 -0.52896,0.0361 -0.44741,-0.0959 0.0816,-0.13195 -0.16343,-0.23991 -0.54441,-0.23991 -0.39442,0 -0.62228,0.11393 -0.52917,0.26459 0.21824,0.35312 -0.0918,0.31901 -1.10451,-0.12148 z m 1.23275,-1.26759 c -0.003,-0.4814 -0.0531,-0.51937 -0.26054,-0.19844 -0.3315,0.51296 -0.3315,0.79375 0,0.79375 0.14552,0 0.26276,-0.26789 0.26054,-0.59531 z m 1.70525,0.36081 c 0.0797,-0.12898 -0.0919,-0.29643 -0.38126,-0.37211 -0.341,-0.0892 -0.52619,-0.007 -0.52619,0.23451 0,0.40883 0.67643,0.5114 0.90745,0.1376 z m 15.44049,-0.35524 c -1.28052,-1.37951 -1.45448,-1.67628 -1.06752,-1.82116 0.25426,-0.0952 0.92165,-0.60787 1.48309,-1.13928 0.88116,-0.83401 2.75451,-2.00607 3.20638,-2.00607 0.081,0 -0.27318,0.61115 -0.78701,1.35812 -0.9461,1.3754 -1.38725,2.50279 -1.09407,2.79597 0.0884,0.0884 0.96588,-0.20644 1.95,-0.65516 0.98412,-0.44871 2.38463,-0.88467 3.11223,-0.96879 l 1.32291,-0.15294 -1.03992,0.40157 c -0.57195,0.22087 -1.8403,1.17428 -2.81854,2.1187 -0.97824,0.94441 -1.99443,1.71711 -2.25818,1.71711 -0.26376,0 -1.16798,-0.74163 -2.00937,-1.64807 z m -1.42011,0.83098 c -0.86818,-0.95933 -1.82362,-1.30859 -3.10086,-1.13352 -0.64563,0.0885 -1.24353,0.0482 -1.32867,-0.0896 -0.49679,-0.80382 3.68318,-3.8164 4.73516,-3.41272 0.36131,0.13864 0.32313,0.28112 -0.26144,0.97585 -0.37649,0.44743 -0.68452,0.9391 -0.68452,1.0926 0,0.15351 0.53787,0.81697 1.19526,1.47437 0.6574,0.65739 1.16342,1.22225 1.12448,1.25523 -0.46484,0.3938 -1.24437,0.3185 -1.67941,-0.16222 z m -27.105003,-0.38028 -0.621538,-0.66159 0.909251,0.3073 c 1.14657,0.38751 1.1218,0.36193 0.69408,0.71691 -0.27894,0.23149 -0.50056,0.14964 -0.981793,-0.36262 z m 23.604183,0.33149 c -0.22534,-0.27152 -0.11512,-0.41628 0.49123,-0.64515 0.88967,-0.33581 1.0126,-0.10281 0.29053,0.55066 -0.40283,0.36456 -0.54351,0.38156 -0.78176,0.0945 z m -18.07781,-2.37526 c -0.94054,-0.63265 -2.17432,-1.7899 -2.82083,-2.64584 -0.63201,-0.83674 -1.34906,-1.5218 -1.59343,-1.52234 -0.24437,-5.3e-4 -0.84481,-0.24516 -1.334308,-0.54358 -0.635516,-0.38745 -1.116198,-0.49291 -1.681111,-0.36883 -0.435116,0.0956 -1.46337,0.0817 -2.285009,-0.0309 -1.342235,-0.18387 -1.413311,-0.22373 -0.70014,-0.39263 0.671139,-0.15894 0.701792,-0.19792 0.198437,-0.25236 -0.327422,-0.0354 -0.714375,-0.0941 -0.859896,-0.13052 -0.145521,-0.0364 -0.658545,-0.081 -1.140055,-0.0992 -0.48151,-0.0182 -1.079045,-0.1819 -1.327857,-0.3638 -0.371819,-0.27183 -0.05098,-0.31411 1.801513,-0.23743 1.342204,0.0556 2.253899,-0.0104 2.253899,-0.16307 0,-0.140994 -1.160859,-0.321868 -2.579687,-0.401939 -2.623134,-0.148037 -5.622396,-0.848593 -5.622396,-1.31326 0,-0.140811 0.194693,-0.181311 0.432651,-0.09 0.909979,0.349192 5.123599,0.509389 5.123599,0.194794 0,-0.200818 -0.651909,-0.305763 -1.918229,-0.308795 -1.055026,-0.0026 -2.735423,-0.177731 -3.734215,-0.389345 -1.799522,-0.381259 -4.137139,-1.510458 -4.137139,-1.998464 0,-0.327488 -0.06062,-0.336814 1.661344,0.255627 2.104251,0.723969 5.808436,1.387412 6.102797,1.09305 0.146656,-0.146656 -0.162928,-0.307748 -0.784366,-0.408149 -3.057789,-0.494017 -6.124496,-1.248434 -7.332564,-1.803831 -1.36417,-0.627162 -3.213257,-1.997693 -2.992746,-2.218204 0.06402,-0.06402 1.170375,0.255994 2.45857,0.71114 2.45303,0.866707 5.467083,1.587769 6.636901,1.587769 1.236703,0 0.410574,-0.315958 -2.180375,-0.833897 -3.924687,-0.784557 -5.332973,-1.40958 -6.982211,-3.098832 -0.786426,-0.805506 -1.312865,-1.503558 -1.169864,-1.551225 0.143,-0.04767 1.14327,0.29011 2.22282,0.750614 1.744571,0.744183 5.43935,2.087507 5.741635,2.087507 0.06284,0 0.04572,-0.178594 -0.03804,-0.396875 -0.178546,-0.465283 0.02853,-0.481437 1.965316,-0.153309 0.790711,0.133961 2.072469,0.317947 2.848351,0.408857 1.37243,0.160809 1.405573,0.149152 1.221839,-0.429741 -0.153176,-0.482614 0.07239,-0.372405 1.19388,0.583329 1.937624,1.651238 2.36304,1.93686 3.714211,2.493703 1.923089,0.792543 2.116666,1.155123 2.116666,3.964633 0,2.030933 0.08165,2.517113 0.483859,2.881103 0.8161,0.73857 1.12039,0.54259 0.70418,-0.45354 -1.021409,-2.444578 -0.67094,-6.155368 0.84429,-8.939341 2.09297,-3.845483 6.91413,-6.260645 11.10972,-5.565414 6.74748,1.118094 11.07517,7.953808 9.04663,14.289425 -0.34612,1.08101 -0.13663,1.34529 0.56387,0.71135 0.45769,-0.41421 0.53079,-0.81391 0.53079,-2.902326 0,-1.527316 0.12217,-2.583942 0.33073,-2.860464 0.1819,-0.241175 0.99748,-0.730787 1.81241,-1.088024 0.81493,-0.357238 2.28766,-1.333281 3.27274,-2.168985 1.31036,-1.111653 1.74229,-1.365798 1.60934,-0.946922 -0.21744,0.685091 -0.30013,0.680411 3.16124,0.178912 1.4552,-0.210838 2.73139,-0.387117 2.83596,-0.391731 0.10457,-0.0046 0.11476,0.188024 0.0226,0.428087 -0.14075,0.366793 -0.0444,0.406633 0.60362,0.249547 0.60252,-0.14606 4.81683,-1.799114 6.92267,-2.7154 0.72628,-0.316018 0.2665,0.658293 -0.79375,1.682034 -1.80307,1.740968 -2.9923,2.21288 -8.20565,3.256173 -0.8387,0.167841 -1.46541,0.401456 -1.39267,0.519146 0.19942,0.322672 3.84403,-0.43901 6.44035,-1.345959 3.53934,-1.236367 3.46896,-1.225196 2.74755,-0.436106 -0.33487,0.366287 -1.1961,0.985597 -1.91385,1.376244 -1.29446,0.704532 -5.84698,2.004927 -7.019,2.004927 -0.74857,0 -2.09534,0.489696 -1.89573,0.689303 0.19513,0.195136 4.15357,-0.565906 6.21191,-1.194289 0.9095,-0.277659 1.65364,-0.412882 1.65364,-0.300493 0,0.11239 -0.45563,0.5201 -1.01252,0.906021 -1.22887,0.851609 -4.00049,1.47614 -6.57863,1.482365 -1.04644,0.0026 -1.9762,0.123656 -2.06614,0.269177 -0.19923,0.322365 2.67426,0.338407 4.29948,0.024 0.61846,-0.119642 1.12448,-0.136202 1.12448,-0.03679 0,0.413364 -3.2095,1.168479 -5.42396,1.276122 -1.30969,0.06366 -2.48253,0.210349 -2.60632,0.32597 -0.41271,0.385471 0.73831,0.524731 2.5422,0.307561 0.98115,-0.11812 1.78391,-0.12685 1.78391,-0.0194 0,0.23067 -2.30658,0.75487 -3.51875,0.79968 l -0.84687,0.0313 0.79375,0.18851 c 0.75591,0.17952 0.73303,0.1985 -0.4799,0.39814 -0.70051,0.1153 -1.75521,0.14504 -2.34379,0.0661 -0.78081,-0.10473 -1.29485,-0.006 -1.90135,0.36331 -0.45716,0.27877 -1.03582,0.5073 -1.28589,0.50784 -0.25007,5.3e-4 -0.92591,0.63889 -1.50188,1.41854 -0.57597,0.77966 -1.50246,1.77538 -2.05887,2.21271 -1.1831,0.92991 -2.72301,1.75804 -2.91397,1.56708 -0.0733,-0.0733 0.35114,-0.3805 0.94328,-0.68259 4.99788,-2.54973 6.99997,-8.960744 4.42523,-14.170367 -1.14301,-2.312713 -2.71831,-3.842451 -5.10897,-4.961173 -5.70183,-2.668208 -12.53363,0.420544 -14.40606,6.513182 -1.379507,4.48871 0.34165,9.383778 4.20647,11.963438 1.91861,1.28063 2.1016,1.43184 1.73282,1.43184 -0.16143,0 -1.04578,-0.50602 -1.96522,-1.12448 z m -8.775939,-8.760598 c 0.093,-0.093 -0.267466,-0.169095 -0.801042,-0.169095 -0.533577,0 -0.970139,-0.119062 -0.970139,-0.264583 0,-0.145521 0.360924,-0.264584 0.802054,-0.264584 0.903714,0 1.28757,-0.585602 0.78265,-1.193993 -0.405808,-0.488968 -2.20773,-0.544182 -2.048742,-0.06278 0.06007,0.181902 0.516481,0.404353 1.014237,0.494337 l 0.905009,0.163608 -0.850586,0.03483 c -0.812475,0.03327 -1.60004,0.816737 -1.303851,1.297069 0.143815,0.233225 2.231797,0.203804 2.47041,-0.03481 z m 2.301989,0.0163 c 0.312783,-0.228714 0.440405,-0.605087 0.381299,-1.12448 -0.0811,-0.712684 -0.186814,-0.787791 -1.213323,-0.862062 l -1.124479,-0.08136 v 1.051499 c 0,0.593635 0.144012,1.109607 0.330729,1.184949 0.592817,0.239208 1.146659,0.181788 1.625774,-0.168546 z m -1.250948,-0.361781 c -0.09701,-0.09701 -0.176389,-0.394671 -0.176389,-0.661461 0,-0.341019 0.196433,-0.485069 0.661459,-0.485069 0.761058,0 0.947491,0.891958 0.242943,1.162318 -0.518208,0.198855 -0.51326,0.198964 -0.728013,-0.0158 z m 27.980098,0.544957 c 0.28246,-0.108392 0.41852,-0.495454 0.41852,-1.190628 0,-1.025308 -0.005,-1.030025 -1.05834,-1.030025 -1.05458,0 -1.05833,0.0037 -1.05833,1.036285 0,1.201296 0.58705,1.610733 1.69815,1.184365 z m -1.16898,-1.16232 c 0,-0.352777 0.17639,-0.529167 0.52916,-0.529167 0.35278,0 0.52917,0.17639 0.52917,0.529167 0,0.352777 -0.17639,0.529167 -0.52917,0.529167 -0.35277,0 -0.52916,-0.17639 -0.52916,-0.529167 z m 4.02877,0.960512 c 0.19932,-0.199324 0.35665,-0.70534 0.34963,-1.12448 -0.0118,-0.705024 -0.097,-0.768164 -1.13726,-0.843433 l -1.12448,-0.08136 v 1.051499 c 0,0.593635 0.14402,1.109607 0.33073,1.184949 0.61508,0.24819 1.21729,0.176911 1.58138,-0.187175 z m -1.04718,-0.6147 c 0.25743,-0.06708 0.61462,-0.06267 0.79375,0.0098 0.17913,0.07248 -0.0315,0.127362 -0.46805,0.12197 -0.43657,-0.0054 -0.58313,-0.06469 -0.3257,-0.131773 z m 0,-0.79375 c 0.25743,-0.06708 0.61462,-0.06267 0.79375,0.0098 0.17913,0.07248 -0.0315,0.127362 -0.46805,0.12197 -0.43657,-0.0054 -0.58313,-0.06469 -0.3257,-0.131773 z m -18.06285,9.70835 c -0.21828,-0.14106 -0.27781,-0.25647 -0.13229,-0.25647 0.14552,0 0.44318,0.11541 0.66146,0.25647 0.21828,0.14107 0.27781,0.25648 0.13229,0.25648 -0.14552,0 -0.44317,-0.11541 -0.66146,-0.25648 z m -12.692334,-0.25424 c -0.214067,-0.13538 -0.320331,-0.31503 -0.236141,-0.39922 0.08419,-0.0842 0.303679,0.0284 0.487755,0.25019 0.381686,0.45991 0.308501,0.50325 -0.251614,0.14903 z m 30.419424,0.0545 c 0,-0.14552 0.17859,-0.41281 0.39687,-0.59397 0.22139,-0.18373 0.39688,-0.21238 0.39688,-0.0648 0,0.14553 -0.17859,0.41281 -0.39688,0.59397 -0.22138,0.18373 -0.39687,0.21238 -0.39687,0.0648 z m -16.13959,-1.12317 c 0,-0.14552 0.11907,-0.26459 0.26459,-0.26459 0.14552,0 0.26458,0.11907 0.26458,0.26459 0,0.14552 -0.11906,0.26458 -0.26458,0.26458 -0.14552,0 -0.26459,-0.11906 -0.26459,-0.26458 z m 0.79375,0 c 0,-0.14552 0.11907,-0.26459 0.26459,-0.26459 0.14552,0 0.26458,0.11907 0.26458,0.26459 0,0.14552 -0.11906,0.26458 -0.26458,0.26458 -0.14552,0 -0.26459,-0.11906 -0.26459,-0.26458 z m 0.79375,-0.14791 c 0,-0.22687 0.11907,-0.33891 0.26459,-0.24897 0.14552,0.0899 0.26458,0.27556 0.26458,0.41249 0,0.13693 -0.11906,0.24897 -0.26458,0.24897 -0.14552,0 -0.26459,-0.18562 -0.26459,-0.41249 z m -2.91041,-0.13229 c 0,-0.15411 0.11906,-0.20662 0.26458,-0.11668 0.14552,0.0899 0.26458,0.21603 0.26458,0.2802 0,0.0642 -0.11906,0.11668 -0.26458,0.11668 -0.14552,0 -0.26458,-0.12609 -0.26458,-0.2802 z m 4.23333,-0.26459 c 0,-0.1541 0.11906,-0.20661 0.26458,-0.11667 0.14552,0.0899 0.26459,0.21603 0.26459,0.2802 0,0.0642 -0.11907,0.11667 -0.26459,0.11667 -0.14552,0 -0.26458,-0.12609 -0.26458,-0.2802 z m -4.16719,-0.44902 c -0.73628,-0.0622 -1.12448,-0.22153 -1.12448,-0.46161 0,-0.53068 -1.05723,-1.19042 -1.90763,-1.19042 -0.56407,0 -0.89891,-0.25137 -1.46249,-1.09791 -0.402,-0.60385 -0.84577,-1.252983 -0.98614,-1.442518 -0.14038,-0.189531 -0.16367,-0.436163 -0.0518,-0.548071 0.1119,-0.111905 0.30274,-0.04283 0.42408,0.153501 0.31453,0.508918 0.80894,0.110128 0.80894,-0.652489 0,-0.355214 0.11907,-0.645843 0.26459,-0.645843 0.14552,0 0.26458,0.338736 0.26458,0.752743 0,1.922827 2.35888,2.167877 3.90261,0.405413 0.47294,-0.539954 0.86744,-0.872604 0.87666,-0.739217 0.009,0.133387 0.12445,-0.02537 0.25606,-0.352793 0.13161,-0.327422 0.33629,-0.595312 0.45485,-0.595312 0.11856,0 0.72907,0.59205 1.3567,1.315664 1.32901,1.532292 2.51678,1.934692 3.60533,1.221442 0.49444,-0.32397 0.66029,-0.663705 0.66029,-1.35258 0,-0.505968 0.10633,-0.919943 0.23628,-0.919943 0.28661,0 0.55747,0.653291 0.55747,1.344557 0,0.635042 0.71217,0.671227 0.87595,0.04451 0.0961,-0.367769 0.12731,-0.347216 0.15169,0.0999 0.0169,0.309602 -0.15478,0.716846 -0.38147,0.904976 -0.22668,0.18814 -0.5778,0.7385 -0.78025,1.22302 -0.32673,0.782 -0.48255,0.88096 -1.387,0.88096 -1.07588,0 -1.65392,0.36526 -1.65392,1.04511 0,0.26017 -0.26599,0.42641 -0.7276,0.45473 -0.40018,0.0246 -1.26339,0.0902 -1.91823,0.14589 -0.65485,0.0557 -1.69664,0.0585 -2.31511,0.006 z m 2.11552,-1.21817 c -0.25208,-0.55324 -0.22914,-0.62263 0.17118,-0.51795 0.25423,0.0665 0.61961,-0.0687 0.81194,-0.30047 0.29265,-0.35262 0.27218,-0.59322 -0.1255,-1.47512 -0.85219,-1.889817 -1.42725,-1.831603 -2.24275,0.22703 -0.32808,0.82819 -0.30694,0.91986 0.3533,1.53207 0.38623,0.35814 0.70225,0.90828 0.70225,1.22254 0,0.43706 0.073,0.49843 0.31032,0.26105 0.23008,-0.23007 0.23505,-0.47553 0.0193,-0.94915 z m -2.71083,-1.49219 c 0,-0.61727 -0.33447,-0.68569 -0.77239,-0.15802 -0.23654,0.285 -0.2287,0.40297 0.0337,0.50828 0.61335,0.2461 0.73864,0.18669 0.73864,-0.35026 z m 6.04577,0.11703 c 0.22674,-0.20027 -0.30443,-0.6462 -0.76972,-0.6462 -0.34274,0 -0.51355,0.18194 -0.51355,0.547 0,0.44508 0.11091,0.5129 0.59531,0.36401 0.32742,-0.10065 0.637,-0.21981 0.68796,-0.26481 z m -9.59262,-4.045288 c -0.10064,-0.16284 -0.10588,-0.707056 -0.0116,-1.209371 0.1849,-0.985618 -0.28177,-2.799871 -0.72019,-2.799871 -0.16722,0 -0.20739,0.475189 -0.10624,1.256771 0.0895,0.691224 0.0594,1.613958 -0.0668,2.050521 -0.2292,0.792816 -0.22973,0.792348 -0.44362,-0.396875 -0.61768,-3.434292 0.79142,-6.24278 3.95253,-7.877788 1.88158,-0.973202 4.72203,-0.961996 6.67238,0.02632 1.60682,0.814236 3.42104,2.783522 3.79085,4.114844 0.31094,1.119435 0.3234,3.373054 0.0229,4.133498 -0.16991,0.429903 -0.24505,0.319307 -0.40057,-0.589563 -0.10528,-0.615302 -0.11304,-1.475601 -0.0173,-1.911775 0.30434,-1.385645 -0.17616,-1.467374 -0.6471,-0.110067 -0.34123,0.983461 -0.38504,1.492 -0.18505,2.148159 0.33619,1.103024 0.0537,1.379972 -0.64394,0.631193 -0.37722,-0.404889 -0.71531,-0.533921 -1.08857,-0.415452 -0.3053,0.0969 -0.62395,0.03831 -0.73066,-0.134336 -0.14142,-0.228828 -0.45575,-0.214353 -1.24424,0.05731 -0.58025,0.199914 -1.28391,0.282588 -1.56368,0.183721 -0.27976,-0.09887 -0.83857,-0.06535 -1.24179,0.07448 -0.51603,0.178953 -0.8467,0.159985 -1.11666,-0.06406 -0.58923,-0.489016 -3.07362,-0.08321 -3.60245,0.588434 -0.2825,0.358783 -0.48657,0.440626 -0.60815,0.243903 z M 92.20829,89.306324 c 0.965015,-1.467319 1.450257,-2.844271 1.002329,-2.844271 -0.144959,0 -1.021069,0.349558 -1.946912,0.776796 -0.925844,0.427237 -2.278665,0.840907 -3.006269,0.919266 -1.268371,0.136597 -1.285936,0.129826 -0.426008,-0.164227 0.493299,-0.168683 1.772044,-1.118135 2.841655,-2.109891 1.069611,-0.991757 2.133192,-1.803194 2.363514,-1.803194 0.230322,0 1.110795,0.738576 1.956606,1.64128 l 1.537838,1.64128 -0.697219,0.358676 c -0.383471,0.197272 -1.113938,0.755264 -1.623261,1.239984 -0.814123,0.774796 -2.344683,1.733364 -2.767688,1.733364 -0.08147,0 0.262963,-0.625078 0.765415,-1.389063 z m 37.72103,0.826427 c -0.50933,-0.308363 -1.41103,-1.005361 -2.00379,-1.548886 -0.59277,-0.543525 -1.24761,-1.050549 -1.45521,-1.126721 -0.44268,-0.162421 2.54902,-3.376341 3.14288,-3.376341 0.19906,0 1.10006,0.708796 2.00222,1.575102 0.90217,0.866306 2.17179,1.822509 2.82137,2.124897 l 1.18106,0.549795 -1.32291,-0.158507 c -0.7276,-0.08718 -2.1315,-0.547815 -3.11977,-1.023637 -0.98827,-0.475821 -1.85526,-0.770625 -1.92665,-0.65512 -0.20597,0.333279 0.63106,2.125712 1.49896,3.209866 0.89583,1.119046 0.58779,1.280768 -0.81816,0.429552 z m -33.977111,-0.72492 c -0.07792,-0.126073 0.09365,-0.442182 0.38126,-0.702466 0.861031,-0.779222 0.666312,-1.787614 -0.558935,-2.894551 -1.168871,-1.056005 -1.168234,-1.053642 -0.351592,-1.304007 0.377327,-0.115681 0.710609,0.0076 1.057709,0.391094 0.876951,0.96902 1.821212,1.308914 3.135747,1.128736 1.041922,-0.142811 1.208752,-0.101123 1.208752,0.302066 0,1.238878 -4.322308,3.97007 -4.872941,3.079128 z m 28.817731,-0.340363 c -1.26823,-0.654526 -3.04271,-2.300221 -3.04271,-2.821889 0,-0.297971 0.2909,-0.33732 1.43603,-0.194245 1.38396,0.172915 1.47428,0.144858 2.49124,-0.773902 0.85792,-0.775079 1.18724,-0.920184 1.76138,-0.776085 l 0.70617,0.177237 -1.21303,1.231552 c -1.34267,1.363165 -1.46771,1.826922 -0.68387,2.536292 1.25718,1.13773 0.3205,1.537474 -1.45521,0.62104 z M 95.53348,88.643514 c 0,-0.145521 0.178594,-0.412803 0.396875,-0.593961 0.221387,-0.183735 0.396875,-0.212385 0.396875,-0.06479 0,0.145521 -0.178594,0.412803 -0.396875,0.59396 -0.221387,0.183735 -0.396875,0.212385 -0.396875,0.06479 z m 30.95123,-0.467726 c -0.27961,-0.336906 -0.26324,-0.375623 0.0999,-0.236276 0.23886,0.09166 0.43429,0.272981 0.43429,0.402932 0,0.340244 -0.15316,0.292461 -0.53419,-0.166656 z M 98.70848,85.686327 c 0,-0.110326 0.221054,-0.400644 0.491231,-0.64515 0.402833,-0.364559 0.543509,-0.381563 0.781761,-0.09449 0.225338,0.271519 0.115118,0.416282 -0.49123,0.645151 -0.429969,0.162295 -0.781762,0.204815 -0.781762,0.09449 z m 24.38003,-0.114988 c -0.73993,-0.267813 -0.82416,-0.37401 -0.50604,-0.638026 0.30686,-0.254669 0.50281,-0.187766 0.99995,0.341419 0.34007,0.361985 0.56778,0.649097 0.50604,0.638026 -0.0618,-0.01107 -0.51173,-0.16471 -0.99995,-0.341419 z M 96.561248,84.279358 c -0.565272,-0.618399 -1.027768,-1.381272 -1.027768,-1.695273 0,-0.650793 1.94023,-2.500817 4.315066,-4.114447 3.951394,-2.684856 7.937684,-3.825577 12.475154,-3.569906 3.21595,0.181207 5.23098,0.682545 7.68374,1.911706 2.8738,1.440161 7.27604,4.916948 7.27604,5.746445 0,0.528164 -2.06712,2.845837 -2.53819,2.845837 -0.2071,0 -1.23479,-0.720611 -2.28375,-1.601358 -4.61604,-3.875792 -10.09335,-5.186627 -15.4804,-3.704783 -2.43295,0.669246 -4.3382,1.722502 -6.98665,3.862352 -0.982821,0.794084 -1.926116,1.443789 -2.096211,1.443789 -0.170095,0 -0.771759,-0.505963 -1.337031,-1.124362 z m 5.851402,-3.254402 c 0,-0.07999 -0.18738,-0.507771 -0.41639,-0.95063 -0.22901,-0.442859 -0.37784,-0.833614 -0.33073,-0.868345 0.65971,-0.486344 1.43702,-0.946011 1.59974,-0.946011 0.44339,0 0.17522,0.767768 -0.32346,0.926041 -0.29104,0.09237 -0.52916,0.278991 -0.52916,0.414705 0,0.320236 0.17893,0.311212 0.83955,-0.04234 0.39065,-0.20907 0.6202,-0.20907 0.82927,0 0.61241,0.612411 0.70018,0.244004 0.18326,-0.769239 -0.60689,-1.189605 -0.74048,-1.233068 -1.93137,-0.62839 -1.50854,0.765967 -1.54533,0.841291 -0.96584,1.977203 0.44632,0.874848 1.04513,1.383063 1.04513,0.887006 z m 17.64779,-0.714465 c 0.11637,-0.181901 0.49627,-0.33073 0.84421,-0.33073 0.34794,0 0.76045,-0.202648 0.91668,-0.45033 0.39109,-0.620002 -0.0164,-0.947642 -0.44674,-0.359168 -0.32668,0.446768 -0.39705,0.448995 -1.19234,0.03774 -0.7112,-0.367778 -0.8024,-0.516936 -0.57541,-0.941067 0.17897,-0.334423 0.18085,-0.558955 0.006,-0.667286 -0.1453,-0.0898 -0.4088,0.154145 -0.58556,0.542094 -0.27558,0.604821 -0.25346,0.755031 0.15516,1.053822 0.32237,0.235727 0.42022,0.525942 0.30243,0.897057 -0.18987,0.598221 0.23086,0.757359 0.576,0.217869 z m -13.6129,-1.0061 c 0.55479,-0.154071 0.99219,-0.442136 0.99219,-0.653434 0,-0.296314 -0.14651,-0.322187 -0.67868,-0.119855 -1.01763,0.386902 -1.17602,0.329477 -1.47763,-0.535716 -0.15219,-0.436562 -0.38412,-0.79375 -0.51541,-0.79375 -0.30752,0 -0.30119,0.126895 0.0678,1.358366 0.34492,1.151228 0.27053,1.11687 1.61177,0.744389 z m 10.69009,-0.845984 c 0.19686,-0.678606 0.37228,-0.842444 0.83203,-0.777119 0.32041,0.04553 0.58257,-0.0342 0.58257,-0.177173 0,-0.295184 -2.6043,-1.225959 -2.82176,-1.008497 -0.23291,0.232914 0.17697,0.706018 0.61167,0.706018 0.32535,0 0.36952,0.207129 0.22572,1.058334 -0.21592,1.278013 0.21323,1.427476 0.56977,0.198437 z m -8.63076,-0.396875 0.009,-0.727604 0.49662,0.595312 c 0.62922,0.754241 0.71247,0.746701 1.15869,-0.104947 l 0.3669,-0.700261 0.17576,0.700261 c 0.0966,0.385143 0.30872,0.70026 0.47125,0.70026 0.2988,0 0.12686,-2.301584 -0.19607,-2.624507 -0.14547,-0.14547 -0.67456,0.444224 -1.16783,1.30159 -0.19088,0.331762 -0.35306,0.277502 -0.98855,-0.330729 -0.41812,-0.400182 -0.843,-0.727604 -0.94418,-0.727604 -0.22482,0 -0.2352,1.237049 -0.0172,2.050521 0.22212,0.828845 0.62518,0.74498 0.63579,-0.132292 z m 6.49037,0.09306 c 0.0876,-0.349001 0.11963,-0.914548 0.0712,-1.256771 -0.0749,-0.529293 -0.27747,-0.643987 -1.3562,-0.767939 -1.44001,-0.165464 -1.63544,-0.01759 -1.85352,1.402485 -0.11625,0.756948 -0.0622,0.992188 0.22787,0.992188 0.25817,0 0.38024,-0.297288 0.38024,-0.926042 0,-0.903993 0.0252,-0.926041 1.05833,-0.926041 0.80053,0 1.05833,0.10473 1.05833,0.429948 0,0.336608 -0.17231,0.395484 -0.79375,0.271197 -0.43656,-0.08731 -0.79375,-0.05755 -0.79375,0.06615 0,0.123693 0.35478,0.295852 0.7884,0.382575 0.56715,0.11343 0.74483,0.27121 0.63315,0.56224 -0.0854,0.222508 -0.0257,0.40456 0.13261,0.40456 0.15831,0 0.35951,-0.285546 0.44711,-0.634546 z"
       style="fill:#ffffff;stroke-width:0.264583" />
  </g>
</svg>
